<svg width="936" height="1008" viewBox="0 0 936 1008" fill="none" xmlns="http://www.w3.org/2000/svg">
<path opacity="0.0344828" d="M293.595 826.261C269.574 752.424 272.185 665.182 276.493 630.791C48.7462 600.624 75.7673 462.362 276.984 470.269C478.202 478.175 314.835 401.104 455.353 257.698C595.87 114.291 656.332 178.118 617.67 360.074C579.008 542.031 405.196 389.639 530.757 743.219C656.318 1096.8 323.621 918.557 293.595 826.261Z" stroke="#A2CE3A" stroke-opacity="0.2" stroke-width="0.835818"/>
<path opacity="0.0689655" d="M265.648 804.522C248.154 728.873 258.359 642.191 265.648 608.306C41.397 558.404 80.3656 423.023 280.128 448.437C479.89 473.85 323.863 382.834 476.344 252.221C628.825 121.607 683.494 190.46 629.121 368.355C574.748 546.249 414.879 379.289 509.146 742.466C603.412 1105.64 287.516 899.084 265.648 804.522Z" stroke="#A2CE3A" stroke-opacity="0.2" stroke-width="0.835818"/>
<path opacity="0.103448" d="M239.324 780.78C228.49 703.893 246.211 618.43 256.425 585.31C37.3768 516.053 87.9963 384.584 284.784 427.311C481.571 470.038 334.07 365.77 497.354 248.943C660.639 132.116 709.099 205.472 639.428 377.95C569.757 550.429 425.049 370.17 487.303 740.182C549.558 1110.19 252.867 876.888 239.324 780.78Z" stroke="#A2CE3A" stroke-opacity="0.2" stroke-width="0.835818"/>
<path opacity="0.137931" d="M214.788 755.183C210.696 677.645 235.798 594.052 248.861 561.947C36.6818 473.862 98.5669 347.306 290.881 407.021C483.196 466.737 345.344 350.01 518.189 247.859C691.035 145.707 732.917 223.008 648.479 388.758C564.04 554.508 435.593 362.323 465.362 736.352C495.131 1110.38 219.903 852.105 214.788 755.183Z" stroke="#A2CE3A" stroke-opacity="0.2" stroke-width="0.835818"/>
<path opacity="0.172414" d="M192.196 727.892C194.878 650.292 227.17 569.205 242.981 538.361C39.2862 432.119 111.966 311.437 298.344 387.687C484.722 463.937 357.568 335.639 538.659 248.941C719.75 162.243 754.735 242.899 656.172 400.66C557.609 558.42 446.4 355.771 443.458 730.971C440.515 1106.17 188.844 824.891 192.196 727.892Z" stroke="#A2CE3A" stroke-opacity="0.2" stroke-width="0.835818"/>
<path opacity="0.206897" d="M171.69 699.084C181.125 622.013 220.361 544.049 238.8 514.701C45.1403 391.109 128.062 277.221 307.085 369.425C486.108 461.629 370.62 322.737 558.578 252.152C746.536 181.567 774.359 264.966 662.421 413.535C550.483 562.105 457.36 350.535 421.727 724.051C386.095 1097.57 159.897 795.422 171.69 699.084Z" stroke="#A2CE3A" stroke-opacity="0.2" stroke-width="0.835818"/>
<path opacity="0.241379" d="M153.391 668.947C169.507 592.992 215.389 518.744 236.316 491.115C54.1646 351.115 146.696 244.888 317.002 352.343C487.308 459.799 384.364 311.371 577.759 257.436C771.154 203.501 791.602 289.007 667.141 427.255C542.681 565.503 468.351 346.622 400.301 715.611C332.25 1084.6 133.246 763.891 153.391 668.947Z" stroke="#A2CE3A" stroke-opacity="0.2" stroke-width="0.835818"/>
<path opacity="0.275862" d="M137.408 637.678C160.083 563.416 212.261 493.45 235.516 467.749C66.2604 312.407 167.698 214.648 327.991 336.538C488.283 458.428 398.668 301.593 596.027 264.718C793.387 227.844 806.305 314.807 670.269 441.682C534.233 568.556 479.263 344.03 379.311 705.684C279.36 1067.34 109.065 730.505 137.408 637.678Z" stroke="#A2CE3A" stroke-opacity="0.2" stroke-width="0.835818"/>
<path opacity="0.310345" d="M123.831 605.484C152.891 533.481 210.969 468.329 236.376 444.753C81.3026 275.25 190.875 186.704 339.934 322.101C488.993 457.497 413.387 293.448 613.21 273.915C813.032 254.382 818.322 342.14 671.745 456.675C525.169 571.211 489.977 342.748 358.886 694.314C227.795 1045.88 87.5049 695.487 123.831 605.484Z" stroke="#A2CE3A" stroke-opacity="0.2" stroke-width="0.835818"/>
<path opacity="0.344828" d="M112.733 572.577C147.958 503.381 211.494 443.538 238.858 422.267C99.1484 239.893 216.021 161.234 352.712 309.107C489.403 456.98 428.383 286.965 629.148 284.922C829.912 282.879 827.533 370.764 671.532 472.089C515.531 573.414 500.385 342.753 339.152 681.556C177.918 1020.36 68.701 659.072 112.733 572.577Z" stroke="#A2CE3A" stroke-opacity="0.2" stroke-width="0.835818"/>
<path opacity="0.37931" d="M104.164 539.176C145.286 473.314 213.795 419.236 242.91 400.431C119.626 206.575 242.91 138.401 366.193 297.625C489.476 456.848 443.506 282.162 643.685 297.625C843.863 313.087 833.833 400.431 669.595 487.773C505.357 575.116 510.371 344.013 320.223 667.474C130.074 990.936 52.761 621.504 104.164 539.176Z" stroke="#A2CE3A" stroke-opacity="0.2" stroke-width="0.835818"/>
<path opacity="0.413793" d="M98.1588 505.504C144.865 443.476 217.827 395.576 248.469 379.379C142.551 175.516 271.306 118.347 380.243 287.709C489.18 457.071 458.61 279.044 656.679 311.894C854.748 344.745 837.144 430.881 665.918 503.577C494.693 576.273 519.83 346.487 302.214 652.145C84.5971 957.803 39.7762 583.039 98.1588 505.504Z" stroke="#A2CE3A" stroke-opacity="0.2" stroke-width="0.835818"/>
<path opacity="0.448276" d="M94.731 471.785C146.665 414.064 223.524 372.705 255.462 359.24C167.714 146.922 300.963 101.192 394.724 279.404C488.486 457.617 473.548 277.602 668 327.59C862.453 377.579 837.408 461.853 660.498 519.349C483.588 576.845 528.657 350.124 285.229 635.653C41.8005 921.181 29.813 543.937 94.731 471.785Z" stroke="#A2CE3A" stroke-opacity="0.2" stroke-width="0.835818"/>
<path opacity="0.482759" d="M93.8752 438.245C150.643 385.27 230.814 350.766 263.803 340.137C194.895 120.978 331.622 87.0358 409.494 272.742C487.366 458.448 488.175 277.816 677.53 344.562C866.886 411.308 834.592 493.079 653.344 534.938C472.096 576.796 536.754 354.866 269.366 618.091C1.97865 881.317 22.9158 504.464 93.8752 438.245Z" stroke="#A2CE3A" stroke-opacity="0.2" stroke-width="0.835818"/>
<path opacity="0.517241" d="M95.5653 405.105C156.734 357.279 239.607 329.894 273.398 322.18C223.852 97.8496 363.017 75.953 424.408 267.739C485.798 459.526 502.347 279.652 685.165 362.647C867.982 445.642 828.684 524.288 644.478 550.19C460.271 576.093 544.026 360.642 254.714 599.562C-34.5979 838.482 19.1046 464.887 95.5653 405.105Z" stroke="#A2CE3A" stroke-opacity="0.2" stroke-width="0.835818"/>
<path opacity="0.551724" d="M99.7573 372.587C164.861 330.274 249.806 310.217 284.14 305.477C254.335 77.6821 394.879 67.9978 439.32 264.405C483.762 460.812 515.925 283.065 690.813 381.678C865.702 480.291 819.699 555.212 633.936 564.961C448.173 574.711 550.386 367.379 241.352 580.175C-67.6819 792.971 18.3772 425.478 99.7573 372.587Z" stroke="#A2CE3A" stroke-opacity="0.2" stroke-width="0.835818"/>
<path opacity="0.586207" d="M106.386 340.906C174.93 304.429 261.3 291.851 295.917 290.122C286.078 60.5959 426.931 63.1976 454.086 262.731C481.241 462.264 528.772 287.996 694.401 401.477C860.029 514.957 807.671 585.583 621.765 579.105C435.86 572.627 555.754 374.993 229.35 560.045C-97.0546 745.097 20.706 386.503 106.386 340.906Z" stroke="#A2CE3A" stroke-opacity="0.2" stroke-width="0.835818"/>
<path opacity="0.62069" d="M115.373 310.272C186.835 279.907 273.972 274.905 308.608 276.2C318.812 46.6897 458.902 61.5577 468.563 262.698C478.224 463.839 540.763 294.377 695.871 421.861C850.978 549.345 792.664 615.139 608.03 592.483C423.397 569.827 560.06 383.395 218.769 539.294C-122.522 695.194 26.0445 348.228 115.373 310.272Z" stroke="#A2CE3A" stroke-opacity="0.2" stroke-width="0.835818"/>
<path opacity="0.655172" d="M126.614 280.887C200.451 256.866 287.693 259.477 322.084 263.785C352.251 36.0379 490.513 63.0591 482.606 264.276C474.7 465.493 551.771 302.127 695.177 442.644C838.584 583.162 774.757 643.623 592.801 604.962C410.844 566.3 563.236 392.488 209.656 518.049C-143.923 643.609 34.3177 310.912 126.614 280.887Z" stroke="#A2CE3A" stroke-opacity="0.2" stroke-width="0.835818"/>
<path opacity="0.689655" d="M139.993 252.941C215.643 235.447 302.325 245.652 336.21 252.941C386.112 28.6895 521.492 67.658 496.079 267.42C470.665 467.183 561.681 311.155 692.295 463.637C822.909 616.118 754.056 670.787 576.161 616.413C398.266 562.04 565.227 402.172 202.05 496.438C-161.128 590.705 45.4313 274.808 139.993 252.941Z" stroke="#A2CE3A" stroke-opacity="0.2" stroke-width="0.835818"/>
<path opacity="0.724138" d="M155.378 226.615C232.265 215.781 317.727 233.502 350.848 243.717C420.105 24.6681 551.574 75.2875 508.847 272.075C466.119 468.862 570.388 321.361 687.215 484.646C804.042 647.931 730.686 696.39 558.207 626.719C385.729 557.048 565.987 412.34 195.976 474.595C-174.035 536.849 59.2701 240.158 155.378 226.615Z" stroke="#A2CE3A" stroke-opacity="0.2" stroke-width="0.835818"/>
<path opacity="0.758621" d="M172.618 202.08C250.156 197.988 333.749 223.09 365.853 236.152C453.938 23.9735 580.495 85.8586 520.779 278.173C461.063 470.488 577.79 332.635 679.942 505.481C782.093 678.327 704.793 720.209 539.042 635.77C373.292 551.332 565.477 422.885 191.448 452.654C-182.581 482.423 75.6949 207.195 172.618 202.08Z" stroke="#A2CE3A" stroke-opacity="0.2" stroke-width="0.835818"/>
<path opacity="0.793103" d="M191.55 179.488C269.15 182.17 350.237 214.462 381.08 230.273C487.323 26.5782 608.004 99.2579 531.755 285.636C455.505 472.014 583.802 344.86 670.5 525.951C757.199 707.042 676.542 742.027 518.782 643.464C361.022 544.901 563.671 433.692 188.47 430.75C-186.73 427.807 94.5505 176.136 191.55 179.488Z" stroke="#A2CE3A" stroke-opacity="0.2" stroke-width="0.835818"/>
<path opacity="0.827586" d="M211.999 158.981C289.07 168.416 367.034 207.652 396.382 226.091C519.974 32.4311 633.862 115.352 541.658 294.376C449.454 473.399 588.346 357.91 658.931 545.868C729.516 733.827 646.117 761.649 497.548 649.711C348.978 537.774 560.548 444.65 187.032 409.018C-186.484 373.385 115.661 147.187 211.999 158.981Z" stroke="#A2CE3A" stroke-opacity="0.2" stroke-width="0.835818"/>
<path opacity="0.862069" d="M233.779 140.682C309.734 156.798 383.981 202.681 411.611 223.607C551.611 41.4561 657.838 133.988 550.382 304.294C442.927 474.6 591.355 371.656 645.29 565.051C699.225 758.445 613.719 778.894 475.471 654.433C337.222 529.972 556.104 455.643 187.114 387.592C-181.875 319.541 138.835 120.538 233.779 140.682Z" stroke="#A2CE3A" stroke-opacity="0.2" stroke-width="0.835818"/>
<path opacity="0.896552" d="M256.689 124.7C330.951 147.375 400.917 199.553 426.618 222.808C581.96 53.5524 679.718 154.99 557.829 315.283C435.939 475.575 592.774 385.96 629.649 583.319C666.523 780.679 579.56 793.597 452.685 657.561C325.811 521.525 550.337 466.555 188.683 366.603C-172.971 266.652 163.862 96.3571 256.689 124.7Z" stroke="#A2CE3A" stroke-opacity="0.2" stroke-width="0.835818"/>
<path opacity="0.931035" d="M280.525 111.124C352.527 140.184 417.68 198.262 441.256 223.669C610.759 68.5958 699.304 178.168 563.908 327.227C428.511 476.286 592.561 400.681 612.094 600.503C631.626 800.325 543.868 805.615 429.333 659.039C314.797 512.462 543.26 477.271 191.694 346.179C-159.873 215.088 190.521 74.7981 280.525 111.124Z" stroke="#A2CE3A" stroke-opacity="0.2" stroke-width="0.835818"/>
<path opacity="0.965517" d="M305.073 100.025C374.269 135.251 434.112 198.786 455.384 226.151C637.757 86.4409 716.416 203.313 568.543 340.005C420.671 476.696 590.685 415.676 592.728 616.44C594.771 817.205 506.886 814.826 405.561 658.825C304.237 502.824 534.898 487.678 196.094 326.444C-142.709 165.211 218.579 55.9934 305.073 100.025Z" stroke="#A2CE3A" stroke-opacity="0.2" stroke-width="0.835818"/>
<path d="M330.116 91.456C395.978 132.578 450.056 201.088 468.862 230.202C662.718 106.919 730.891 230.202 571.668 353.485C412.444 476.768 587.13 430.798 571.668 630.977C556.205 831.155 468.862 821.125 381.519 656.887C294.176 492.649 525.279 497.664 201.818 307.515C-121.644 117.366 247.788 40.0532 330.116 91.456Z" stroke="#A2CE3A" stroke-opacity="0.2" stroke-width="0.835818"/>
</svg>
