<svg width="581" height="376" viewBox="0 0 581 376" fill="none" xmlns="http://www.w3.org/2000/svg">
<path opacity="0.0344828" d="M91.0856 629.8C72.7763 573.519 74.7666 507.022 78.0504 480.808C-95.545 457.813 -74.9487 352.426 78.4247 358.453C231.798 364.479 107.276 305.734 214.382 196.425C321.488 87.1167 367.574 135.767 338.105 274.46C308.636 413.152 176.151 296.995 271.857 566.503C367.563 836.011 113.972 700.151 91.0856 629.8Z" stroke="#A2CE3A" stroke-opacity="0.2" stroke-width="0.637084"/>
<path opacity="0.0689655" d="M69.7848 613.227C56.4504 555.565 64.2288 489.494 69.7848 463.666C-101.146 425.629 -71.4429 322.438 80.8216 341.809C233.086 361.18 114.158 291.805 230.383 192.248C346.609 92.69 388.279 145.172 346.834 280.768C305.389 416.365 183.533 289.102 255.385 565.926C327.238 842.75 86.4528 685.305 69.7848 613.227Z" stroke="#A2CE3A" stroke-opacity="0.2" stroke-width="0.637084"/>
<path opacity="0.103448" d="M49.7189 595.132C41.4608 536.527 54.9681 471.385 62.7541 446.139C-104.211 393.349 -65.6274 293.14 84.3694 325.708C234.366 358.276 121.937 278.8 246.397 189.751C370.857 100.702 407.795 156.616 354.69 288.084C301.584 419.552 191.283 282.154 238.736 564.187C286.188 846.22 60.0415 668.388 49.7189 595.132Z" stroke="#A2CE3A" stroke-opacity="0.2" stroke-width="0.637084"/>
<path opacity="0.137931" d="M31.0167 575.62C27.8978 516.518 47.0312 452.801 56.9877 428.331C-104.741 361.19 -57.5705 264.725 89.0171 310.242C235.605 355.759 130.53 266.786 262.278 188.923C394.025 111.061 425.949 169.981 361.588 296.321C297.226 422.66 199.32 276.171 222.011 561.267C244.702 846.362 34.9152 649.497 31.0167 575.62Z" stroke="#A2CE3A" stroke-opacity="0.2" stroke-width="0.637084"/>
<path opacity="0.172414" d="M13.7964 554.819C15.8404 495.67 40.4543 433.863 52.5058 410.353C-102.756 329.372 -47.3573 237.385 94.7053 295.505C236.768 353.625 139.847 255.833 277.88 189.749C415.913 123.665 442.58 185.144 367.452 305.393C292.324 425.642 207.558 271.178 205.315 557.166C203.072 843.154 11.2413 628.754 13.7964 554.819Z" stroke="#A2CE3A" stroke-opacity="0.2" stroke-width="0.637084"/>
<path opacity="0.206897" d="M-1.83417 532.863C5.35725 474.118 35.2643 414.692 49.3189 392.322C-98.2939 298.117 -35.089 211.308 101.368 281.588C237.824 351.869 149.796 246.002 293.063 192.2C436.329 138.398 457.537 201.966 372.215 315.21C286.892 428.454 215.911 267.19 188.751 551.894C161.591 836.599 -10.8234 606.295 -1.83417 532.863Z" stroke="#A2CE3A" stroke-opacity="0.2" stroke-width="0.637084"/>
<path opacity="0.241379" d="M-15.7819 509.89C-3.49787 451.995 31.4747 395.401 47.4255 374.341C-91.4151 267.63 -20.8849 186.66 108.927 268.566C238.739 350.472 160.272 237.335 307.683 196.225C455.094 155.114 470.681 220.289 375.813 325.666C280.946 431.042 224.29 264.205 172.42 545.459C120.549 826.713 -31.137 582.259 -15.7819 509.89Z" stroke="#A2CE3A" stroke-opacity="0.2" stroke-width="0.637084"/>
<path opacity="0.275862" d="M-27.9641 486.058C-10.6809 429.453 29.0911 376.123 46.8167 356.534C-82.1951 238.127 -4.87628 163.613 117.303 256.521C239.483 349.429 171.175 229.884 321.608 201.778C472.041 173.671 481.888 239.957 378.197 336.664C274.507 433.371 232.607 262.231 156.421 537.894C80.2354 813.557 -49.5681 556.813 -27.9641 486.058Z" stroke="#A2CE3A" stroke-opacity="0.2" stroke-width="0.637084"/>
<path opacity="0.310345" d="M-38.3137 461.514C-16.1629 406.632 28.1058 356.971 47.4713 339.001C-70.7297 209.801 12.7892 142.309 126.406 245.512C240.023 348.715 182.395 223.672 334.705 208.783C487.015 193.895 491.047 260.786 379.322 348.088C267.598 435.391 240.774 261.25 140.852 529.224C40.9306 797.198 -66.0022 530.117 -38.3137 461.514Z" stroke="#A2CE3A" stroke-opacity="0.2" stroke-width="0.637084"/>
<path opacity="0.344828" d="M-46.7717 436.434C-19.9219 383.691 28.5066 338.077 49.3646 321.863C-57.1262 182.853 31.9573 122.897 136.147 235.61C240.337 348.322 193.826 218.732 346.854 217.175C499.883 215.618 498.069 282.607 379.161 359.839C260.253 437.072 248.708 261.255 125.811 519.501C2.91429 777.746 -80.3341 502.363 -46.7717 436.434Z" stroke="#A2CE3A" stroke-opacity="0.2" stroke-width="0.637084"/>
<path opacity="0.37931" d="M-53.3039 410.974C-21.9594 360.772 30.2603 319.553 52.4521 305.218C-41.5179 157.456 52.4521 105.492 146.422 226.857C240.392 348.221 205.352 215.071 357.934 226.857C510.516 238.643 502.871 305.218 377.684 371.793C252.497 438.369 256.319 262.215 111.382 508.767C-33.5543 755.318 -92.4846 473.727 -53.3039 410.974Z" stroke="#A2CE3A" stroke-opacity="0.2" stroke-width="0.637084"/>
<path opacity="0.413793" d="M-57.8812 385.311C-22.2805 338.032 33.333 301.52 56.6896 289.175C-24.0444 133.784 74.0969 90.2086 157.132 219.301C240.166 348.394 216.865 212.696 367.839 237.736C518.813 262.775 505.394 328.431 374.881 383.842C244.368 439.253 263.529 264.103 97.6553 497.085C-68.2183 730.066 -102.382 444.41 -57.8812 385.311Z" stroke="#A2CE3A" stroke-opacity="0.2" stroke-width="0.637084"/>
<path opacity="0.448276" d="M-60.494 359.611C-20.9081 315.615 37.6759 284.089 62.0197 273.826C-4.86398 111.991 96.7018 77.1344 168.169 212.973C239.637 348.811 228.251 211.599 376.468 249.702C524.685 287.804 505.595 352.041 370.75 395.866C235.904 439.691 270.257 266.878 84.7089 484.516C-100.839 702.153 -109.976 414.607 -60.494 359.611Z" stroke="#A2CE3A" stroke-opacity="0.2" stroke-width="0.637084"/>
<path opacity="0.482759" d="M-61.1466 334.044C-17.8768 293.665 43.2319 267.366 68.3775 259.264C15.8532 92.2148 120.07 66.343 179.427 207.893C238.784 349.444 239.4 211.761 383.732 262.637C528.064 313.512 503.448 375.841 365.296 407.746C227.144 439.652 276.428 270.49 72.6176 471.129C-131.193 671.767 -115.234 384.518 -61.1466 334.044Z" stroke="#A2CE3A" stroke-opacity="0.2" stroke-width="0.637084"/>
<path opacity="0.517241" d="M-59.8579 308.781C-13.2335 272.327 49.9348 251.454 75.6909 245.574C37.9258 74.583 144.001 57.8928 190.795 204.078C237.589 350.263 250.202 213.158 389.551 276.419C528.9 339.68 498.946 399.626 358.539 419.37C218.131 439.113 281.971 274.891 61.4496 457.002C-159.072 639.114 -118.138 354.349 -59.8579 308.781Z" stroke="#A2CE3A" stroke-opacity="0.2" stroke-width="0.637084"/>
<path opacity="0.551724" d="M-56.6624 283.996C-7.03819 251.744 57.709 236.456 83.8795 232.843C61.1609 59.2114 168.287 51.8298 202.162 201.537C236.037 351.244 260.552 215.76 393.857 290.926C527.162 366.091 492.097 423.198 350.504 430.629C208.91 438.061 286.82 280.027 51.2652 442.226C-184.289 604.425 -118.693 324.311 -56.6624 283.996Z" stroke="#A2CE3A" stroke-opacity="0.2" stroke-width="0.637084"/>
<path opacity="0.586207" d="M-51.6093 259.851C0.636971 232.047 66.4702 222.46 92.856 221.142C85.3569 46.1907 192.719 48.1738 213.417 200.264C234.115 352.353 270.345 219.522 396.592 306.02C522.839 392.517 482.93 446.351 341.227 441.413C199.525 436.475 290.912 285.833 42.117 426.885C-206.678 567.937 -116.917 294.606 -51.6093 259.851Z" stroke="#A2CE3A" stroke-opacity="0.2" stroke-width="0.637084"/>
<path opacity="0.62069" d="M-44.7595 236.497C9.71129 213.353 76.1296 209.54 102.53 210.526C110.307 35.5874 217.088 46.9202 224.452 200.235C231.816 353.55 279.485 224.382 397.712 321.553C515.94 418.725 471.491 468.876 330.758 451.607C190.025 434.337 294.194 292.233 34.0522 411.064C-226.089 529.895 -112.848 265.428 -44.7595 236.497Z" stroke="#A2CE3A" stroke-opacity="0.2" stroke-width="0.637084"/>
<path opacity="0.655172" d="M-36.1908 214.104C20.0899 195.795 86.5878 197.785 112.802 201.069C135.796 27.4736 241.183 48.0699 235.157 201.443C229.13 354.817 287.876 230.294 397.184 337.401C506.493 444.507 457.842 490.592 319.15 461.123C180.457 431.654 296.615 299.17 27.1064 394.876C-242.402 490.582 -106.542 236.991 -36.1908 214.104Z" stroke="#A2CE3A" stroke-opacity="0.2" stroke-width="0.637084"/>
<path opacity="0.689655" d="M-25.9941 192.797C31.6682 179.463 97.7396 187.241 123.567 192.797C161.605 21.8666 264.795 51.5696 245.424 203.834C226.053 356.099 295.428 237.17 394.986 353.396C494.543 469.621 442.062 511.291 306.465 469.846C170.869 428.402 298.131 306.545 21.307 378.398C-255.517 450.25 -98.072 209.465 -25.9941 192.797Z" stroke="#A2CE3A" stroke-opacity="0.2" stroke-width="0.637084"/>
<path opacity="0.724138" d="M-14.266 172.731C44.339 164.473 109.481 177.98 134.726 185.766C187.516 18.8007 287.725 57.3843 255.158 207.381C222.59 357.378 302.066 244.948 391.115 369.409C480.164 493.869 424.25 530.806 292.782 477.701C161.314 424.596 298.712 314.295 16.6789 361.747C-265.354 409.2 -87.5223 183.053 -14.266 172.731Z" stroke="#A2CE3A" stroke-opacity="0.2" stroke-width="0.637084"/>
<path opacity="0.758621" d="M-1.12735 154.031C57.9744 150.912 121.691 170.045 146.162 180.002C213.303 18.2731 309.768 65.4437 264.251 212.031C218.734 358.619 307.707 253.544 385.569 385.292C463.432 517.039 404.512 548.963 278.172 484.602C151.833 420.241 298.321 322.334 13.2259 345.025C-271.87 367.716 -75.0045 157.929 -1.12735 154.031Z" stroke="#A2CE3A" stroke-opacity="0.2" stroke-width="0.637084"/>
<path opacity="0.793103" d="M13.3045 136.814C72.4532 138.858 134.26 163.472 157.77 175.523C238.751 20.2615 330.738 75.66 272.618 217.723C214.498 359.785 312.29 262.865 378.374 400.897C444.458 538.93 382.979 565.597 262.73 490.469C142.481 415.342 296.945 330.575 10.9569 328.332C-275.031 326.089 -60.6314 134.259 13.3045 136.814Z" stroke="#A2CE3A" stroke-opacity="0.2" stroke-width="0.637084"/>
<path opacity="0.827586" d="M28.8919 121.181C87.6374 128.373 147.064 158.28 169.434 172.335C263.639 24.7217 350.447 87.9266 280.167 224.383C209.887 360.84 315.754 272.811 369.556 416.078C423.358 559.345 359.789 580.552 246.545 495.23C133.301 409.908 294.566 338.927 9.86133 311.767C-274.843 284.607 -44.5399 112.192 28.8919 121.181Z" stroke="#A2CE3A" stroke-opacity="0.2" stroke-width="0.637084"/>
<path opacity="0.862069" d="M45.4922 107.23C103.387 119.514 159.981 154.487 181.041 170.437C287.753 31.5968 368.722 102.127 286.816 231.939C204.911 361.751 318.047 283.284 359.158 430.695C400.269 578.106 335.093 593.692 229.717 498.825C124.34 403.958 291.177 347.302 9.92341 295.432C-271.331 243.561 -26.8767 91.875 45.4922 107.23Z" stroke="#A2CE3A" stroke-opacity="0.2" stroke-width="0.637084"/>
<path opacity="0.896552" d="M62.955 95.0503C119.559 112.333 172.89 152.105 192.479 169.831C310.886 40.8193 385.4 118.138 292.492 240.318C199.584 362.497 319.129 294.189 347.235 444.622C375.342 595.056 309.056 604.902 212.349 501.212C115.641 397.521 286.782 355.621 11.1187 279.436C-264.544 203.25 -7.80025 73.4463 62.955 95.0503Z" stroke="#A2CE3A" stroke-opacity="0.2" stroke-width="0.637084"/>
<path opacity="0.931035" d="M81.1239 84.6995C136.006 106.85 185.667 151.119 203.638 170.484C332.838 52.2834 400.329 135.802 297.126 249.419C193.923 363.037 318.967 305.408 333.855 457.718C348.744 610.028 281.852 614.06 194.55 502.336C107.248 390.611 281.389 363.787 13.4146 263.865C-254.559 163.944 12.5208 57.011 81.1239 84.6995Z" stroke="#A2CE3A" stroke-opacity="0.2" stroke-width="0.637084"/>
<path opacity="0.965517" d="M99.8361 76.2395C152.579 103.089 198.193 151.518 214.407 172.376C353.417 65.8851 413.373 154.969 300.66 259.159C187.948 363.348 317.538 316.837 319.095 469.866C320.652 622.894 253.663 621.08 176.431 502.172C99.1984 383.264 275.015 371.719 16.7691 248.822C-241.476 125.926 33.9073 42.6772 99.8361 76.2395Z" stroke="#A2CE3A" stroke-opacity="0.2" stroke-width="0.637084"/>
<path d="M118.923 69.7103C169.125 101.055 210.345 153.274 224.679 175.466C372.442 81.4963 424.405 175.466 303.041 269.436C181.676 363.406 314.827 328.366 303.041 480.948C291.255 633.53 224.679 625.885 158.104 500.698C91.5289 375.511 267.682 379.333 21.1307 234.397C-225.421 89.4599 56.1703 30.5296 118.923 69.7103Z" stroke="#A2CE3A" stroke-opacity="0.2" stroke-width="0.637084"/>
</svg>
