<svg width="1440" height="224" viewBox="0 0 1440 224" fill="none" xmlns="http://www.w3.org/2000/svg">
<g clip-path="url(#clip0_510_978)">
<path d="M129.448 224V124.331H163.752V224H129.448ZM90.024 126.891V99.584H204.029V126.891H90.024ZM239.449 225.707C232.736 225.707 226.592 224.626 221.017 222.464C215.556 220.188 210.834 216.946 206.852 212.736C202.87 208.526 199.798 203.52 197.636 197.717C195.474 191.915 194.393 185.372 194.393 178.091C194.393 168.306 196.271 159.829 200.025 152.661C203.78 145.493 209.071 140.032 215.897 136.277C222.724 132.409 230.575 130.475 239.449 130.475C245.138 130.475 250.144 131.1 254.468 132.352C258.792 133.49 262.432 135.196 265.391 137.472C268.463 139.634 270.852 142.194 272.559 145.152H273.753L274.777 131.84H306.351V224H273.071V210.688H271.876C269.032 215.353 264.651 219.051 258.735 221.781C252.932 224.398 246.504 225.707 239.449 225.707ZM249.86 200.789C254.639 200.789 258.735 199.879 262.148 198.059C265.675 196.124 268.349 193.564 270.169 190.379C271.99 187.079 272.9 183.438 272.9 179.456V176.384C272.9 172.288 271.99 168.704 270.169 165.632C268.349 162.446 265.675 159.943 262.148 158.123C258.735 156.302 254.639 155.392 249.86 155.392C245.536 155.392 241.725 156.245 238.425 157.952C235.126 159.659 232.509 162.219 230.575 165.632C228.754 169.045 227.844 173.198 227.844 178.091C227.844 182.869 228.754 186.965 230.575 190.379C232.395 193.792 234.955 196.409 238.255 198.229C241.554 199.936 245.423 200.789 249.86 200.789ZM322.017 224V99.584H355.297V224H322.017ZM421.364 225.707C409.759 225.707 399.803 223.716 391.497 219.733C383.192 215.751 376.82 210.233 372.383 203.179C367.945 196.124 365.727 187.932 365.727 178.603C365.727 168.363 368.002 159.659 372.553 152.491C377.218 145.323 383.76 139.861 392.18 136.107C400.713 132.238 410.612 130.304 421.876 130.304C434.733 130.304 445.428 132.636 453.961 137.301C462.608 141.852 468.866 148.281 472.735 156.587C476.603 164.892 477.912 174.62 476.66 185.771H400.543C400.77 189.412 401.794 192.484 403.615 194.987C405.549 197.49 408.223 199.424 411.636 200.789C415.049 202.041 418.918 202.667 423.241 202.667C428.134 202.667 432.4 201.87 436.041 200.277C439.796 198.571 442.185 196.466 443.209 193.963H475.977C474.726 200.676 471.654 206.421 466.761 211.2C461.869 215.865 455.497 219.449 447.647 221.952C439.91 224.455 431.149 225.707 421.364 225.707ZM399.689 169.728L398.665 168.021H444.745L443.38 169.557C443.38 165.803 442.527 162.617 440.82 160C439.227 157.383 436.838 155.449 433.652 154.197C430.466 152.832 426.541 152.149 421.876 152.149C417.439 152.149 413.57 152.889 410.271 154.368C407.085 155.733 404.582 157.724 402.761 160.341C400.941 162.958 399.917 166.087 399.689 169.728ZM487.351 224V131.84H519.436L520.631 146.517H522.167C525.011 141.397 529.448 137.415 535.479 134.571C541.623 131.612 547.994 130.133 554.593 130.133C560.624 130.133 566.028 130.873 570.807 132.352C575.699 133.831 579.909 136.277 583.436 139.691C586.963 142.99 589.694 147.428 591.628 153.003C593.562 158.464 594.529 165.234 594.529 173.312V224H561.249V179.285C561.249 174.279 560.68 170.012 559.543 166.485C558.519 162.844 556.641 160.057 553.911 158.123C551.294 156.075 547.596 155.051 542.817 155.051C538.266 155.051 534.341 156.075 531.041 158.123C527.742 160.057 525.182 162.788 523.361 166.315C521.541 169.728 520.631 173.653 520.631 178.091V224H487.351ZM642.492 224C634.3 224 628.099 221.838 623.889 217.515C619.68 213.191 617.575 206.933 617.575 198.741V156.757H601.02V131.84H617.575V109.483L650.172 103.339V131.84H672.529V156.757H650.172V189.013C650.172 191.744 650.798 193.564 652.049 194.475C653.415 195.385 655.235 195.84 657.511 195.84H672.529V224H642.492ZM685.871 224V99.584H720.175V202.837L713.177 195.84H779.396V224H685.871ZM838.205 225.707C829.786 225.707 822.106 224.683 815.165 222.635C808.339 220.473 802.422 217.344 797.416 213.248C792.41 209.152 788.541 204.146 785.811 198.229C783.194 192.313 781.885 185.543 781.885 177.92C781.885 167.794 784.218 159.204 788.883 152.149C793.661 144.981 800.26 139.52 808.68 135.765C817.1 132.011 826.941 130.133 838.205 130.133C846.625 130.133 854.305 131.214 861.245 133.376C868.186 135.424 874.102 138.496 878.995 142.592C884.001 146.688 887.812 151.694 890.429 157.611C893.16 163.527 894.525 170.297 894.525 177.92C894.525 187.932 892.193 196.523 887.528 203.691C882.863 210.859 876.321 216.32 867.901 220.075C859.596 223.829 849.697 225.707 838.205 225.707ZM838.205 200.448C843.212 200.448 847.421 199.538 850.835 197.717C854.362 195.897 856.979 193.28 858.685 189.867C860.506 186.453 861.416 182.471 861.416 177.92C861.416 174.393 860.904 171.264 859.88 168.533C858.856 165.689 857.377 163.3 855.443 161.365C853.508 159.431 851.062 157.952 848.104 156.928C845.26 155.79 841.96 155.221 838.205 155.221C833.313 155.221 829.103 156.188 825.576 158.123C822.163 159.943 819.546 162.56 817.725 165.973C816.019 169.273 815.165 173.255 815.165 177.92C815.165 181.447 815.677 184.576 816.701 187.307C817.725 190.037 819.204 192.37 821.139 194.304C823.073 196.238 825.462 197.774 828.307 198.912C831.151 199.936 834.451 200.448 838.205 200.448ZM958.539 225.707C950.119 225.707 942.439 224.683 935.499 222.635C928.672 220.473 922.755 217.344 917.749 213.248C912.743 209.152 908.875 204.146 906.144 198.229C903.527 192.313 902.219 185.543 902.219 177.92C902.219 167.794 904.551 159.204 909.216 152.149C913.995 144.981 920.594 139.52 929.013 135.765C937.433 132.011 947.275 130.133 958.539 130.133C966.958 130.133 974.638 131.214 981.579 133.376C988.519 135.424 994.435 138.496 999.328 142.592C1004.33 146.688 1008.15 151.694 1010.76 157.611C1013.49 163.527 1014.86 170.297 1014.86 177.92C1014.86 187.932 1012.53 196.523 1007.86 203.691C1003.2 210.859 996.654 216.32 988.235 220.075C979.929 223.829 970.03 225.707 958.539 225.707ZM958.539 200.448C963.545 200.448 967.755 199.538 971.168 197.717C974.695 195.897 977.312 193.28 979.019 189.867C980.839 186.453 981.749 182.471 981.749 177.92C981.749 174.393 981.237 171.264 980.213 168.533C979.189 165.689 977.71 163.3 975.776 161.365C973.842 159.431 971.395 157.952 968.437 156.928C965.593 155.79 962.293 155.221 958.539 155.221C953.646 155.221 949.436 156.188 945.909 158.123C942.496 159.943 939.879 162.56 938.059 165.973C936.352 169.273 935.499 173.255 935.499 177.92C935.499 181.447 936.011 184.576 937.035 187.307C938.059 190.037 939.538 192.37 941.472 194.304C943.406 196.238 945.795 197.774 948.64 198.912C951.484 199.936 954.784 200.448 958.539 200.448ZM1024.85 252.501V131.84H1056.25L1057.45 145.152H1058.47C1061.2 140.828 1065.3 137.301 1070.76 134.571C1076.22 131.84 1083.22 130.475 1091.75 130.475C1098.46 130.475 1104.55 131.556 1110.01 133.717C1115.47 135.879 1120.2 139.065 1124.18 143.275C1128.16 147.371 1131.23 152.377 1133.39 158.293C1135.56 164.096 1136.64 170.695 1136.64 178.091C1136.64 187.762 1134.76 196.181 1131.01 203.349C1127.25 210.404 1121.96 215.922 1115.13 219.904C1108.42 223.772 1100.51 225.707 1091.41 225.707C1086.75 225.707 1082.31 225.138 1078.1 224C1073.89 222.748 1070.19 221.042 1067.01 218.88C1063.82 216.604 1061.26 213.874 1059.33 210.688H1058.13V252.501H1024.85ZM1081.34 200.789C1085.78 200.789 1089.59 199.936 1092.78 198.229C1096.08 196.409 1098.64 193.792 1100.46 190.379C1102.39 186.965 1103.36 182.869 1103.36 178.091C1103.36 173.198 1102.45 169.102 1100.63 165.803C1098.81 162.389 1096.25 159.829 1092.95 158.123C1089.65 156.302 1085.78 155.392 1081.34 155.392C1076.45 155.392 1072.24 156.302 1068.71 158.123C1065.3 159.943 1062.68 162.446 1060.86 165.632C1059.04 168.704 1058.13 172.288 1058.13 176.384V179.456C1058.13 183.438 1059.04 187.079 1060.86 190.379C1062.68 193.564 1065.3 196.124 1068.71 198.059C1072.24 199.879 1076.45 200.789 1081.34 200.789ZM1158.82 225.707C1152.56 225.707 1148.01 224.341 1145.17 221.611C1142.32 218.88 1140.9 215.467 1140.9 211.371C1140.9 207.275 1142.32 203.918 1145.17 201.301C1148.01 198.571 1152.56 197.205 1158.82 197.205C1165.19 197.205 1169.8 198.571 1172.65 201.301C1175.49 203.918 1176.91 207.275 1176.91 211.371C1176.91 215.467 1175.49 218.88 1172.65 221.611C1169.8 224.341 1165.19 225.707 1158.82 225.707ZM1226.28 225.707C1219.57 225.707 1213.43 224.626 1207.85 222.464C1202.39 220.188 1197.67 216.946 1193.69 212.736C1189.7 208.526 1186.63 203.52 1184.47 197.717C1182.31 191.915 1181.23 185.372 1181.23 178.091C1181.23 168.306 1183.1 159.829 1186.86 152.661C1190.61 145.493 1195.9 140.032 1202.73 136.277C1209.56 132.409 1217.41 130.475 1226.28 130.475C1231.97 130.475 1236.98 131.1 1241.3 132.352C1245.62 133.49 1249.27 135.196 1252.22 137.472C1255.3 139.634 1257.69 142.194 1259.39 145.152H1260.59L1261.61 131.84H1293.18V224H1259.9V210.688H1258.71C1255.86 215.353 1251.48 219.051 1245.57 221.781C1239.77 224.398 1233.34 225.707 1226.28 225.707ZM1236.69 200.789C1241.47 200.789 1245.57 199.879 1248.98 198.059C1252.51 196.124 1255.18 193.564 1257 190.379C1258.82 187.079 1259.73 183.438 1259.73 179.456V176.384C1259.73 172.288 1258.82 168.704 1257 165.632C1255.18 162.446 1252.51 159.943 1248.98 158.123C1245.57 156.302 1241.47 155.392 1236.69 155.392C1232.37 155.392 1228.56 156.245 1225.26 157.952C1221.96 159.659 1219.34 162.219 1217.41 165.632C1215.59 169.045 1214.68 173.198 1214.68 178.091C1214.68 182.869 1215.59 186.965 1217.41 190.379C1219.23 193.792 1221.79 196.409 1225.09 198.229C1228.39 199.936 1232.26 200.789 1236.69 200.789ZM1308.85 224V131.84H1342.13V224H1308.85ZM1325.58 123.136C1319.43 123.136 1314.88 121.941 1311.92 119.552C1308.96 117.049 1307.49 113.863 1307.49 109.995C1307.49 105.557 1309.13 102.315 1312.43 100.267C1315.73 98.1049 1320.11 97.024 1325.58 97.024C1331.72 97.024 1336.21 98.2187 1339.06 100.608C1342.02 102.997 1343.5 106.126 1343.5 109.995C1343.5 114.432 1341.85 117.732 1338.55 119.893C1335.36 122.055 1331.04 123.136 1325.58 123.136Z" fill="white" fill-opacity="0.08"/>
<g filter="url(#filter0_f_510_978)">
<ellipse cx="762.5" rx="661.5" ry="14" fill="#A2CE3A"/>
</g>
</g>
<defs>
<filter id="filter0_f_510_978" x="1" y="-114" width="1523" height="228" filterUnits="userSpaceOnUse" color-interpolation-filters="sRGB">
<feFlood flood-opacity="0" result="BackgroundImageFix"/>
<feBlend mode="normal" in="SourceGraphic" in2="BackgroundImageFix" result="shape"/>
<feGaussianBlur stdDeviation="50" result="effect1_foregroundBlur_510_978"/>
</filter>
<clipPath id="clip0_510_978">
<rect width="1440" height="286" fill="white"/>
</clipPath>
</defs>
</svg>
