<svg width="1247" height="352" viewBox="0 0 1247 352" fill="none" xmlns="http://www.w3.org/2000/svg">
<g clip-path="url(#clip0_871_28652)">
<rect width="1247" height="352" rx="24" fill="#E8FFB1"/>
<path d="M632.068 352.579L641.376 385.137C644.864 397.324 662.136 397.324 665.624 385.137L674.922 352.579C675.511 350.519 676.614 348.644 678.129 347.129C679.644 345.614 681.519 344.511 683.579 343.922L716.137 334.624C728.324 331.136 728.324 313.864 716.137 310.376L683.579 301.078C681.519 300.489 679.644 299.386 678.129 297.871C676.614 296.356 675.511 294.481 674.922 292.421L665.624 259.863C662.136 247.676 644.864 247.676 641.376 259.863L632.078 292.421C631.489 294.481 630.386 296.356 628.871 297.871C627.356 299.386 625.481 300.489 623.421 301.078L590.863 310.376C578.676 313.864 578.676 331.136 590.863 334.624L623.421 343.922C625.481 344.511 627.356 345.614 628.871 347.129C630.386 348.644 631.489 350.519 632.078 352.579M573.969 403.565L577.919 419.408C578.444 421.531 581.47 421.531 581.995 419.408L585.956 403.565C586.049 403.197 586.24 402.862 586.508 402.593C586.776 402.325 587.112 402.134 587.48 402.042L603.323 398.081C605.445 397.556 605.445 394.54 603.323 394.005L587.48 390.044C587.112 389.951 586.776 389.76 586.508 389.492C586.24 389.224 586.049 388.888 585.956 388.52L581.995 372.677C581.47 370.555 578.444 370.555 577.919 372.677L573.958 388.52C573.865 388.888 573.675 389.224 573.407 389.492C573.138 389.76 572.803 389.951 572.435 390.044L556.592 394.005C554.469 394.53 554.469 397.545 556.592 398.081L572.435 402.042C572.803 402.134 573.138 402.325 573.407 402.593C573.675 402.862 573.876 403.197 573.969 403.565ZM721.054 256.48L725.005 272.323C725.53 274.445 728.545 274.445 729.081 272.323L733.042 256.48C733.134 256.112 733.325 255.776 733.593 255.508C733.862 255.24 734.197 255.049 734.565 254.956L750.408 250.995C752.531 250.47 752.531 247.444 750.408 246.919L734.565 242.958C734.197 242.865 733.862 242.675 733.593 242.407C733.325 242.138 733.134 241.803 733.042 241.435L729.081 225.592C728.556 223.469 725.54 223.469 725.005 225.592L721.044 241.435C720.951 241.803 720.76 242.138 720.492 242.407C720.224 242.675 719.888 242.865 719.52 242.958L703.677 246.919C701.555 247.444 701.555 250.47 703.677 250.995L719.52 254.956C719.888 255.049 720.224 255.24 720.492 255.508C720.76 255.776 720.961 256.112 721.054 256.48Z" stroke="black" stroke-opacity="0.1" stroke-width="2" stroke-miterlimit="10" stroke-linecap="round" stroke-linejoin="round"/>
<path d="M389.068 352.579L398.376 385.137C401.864 397.324 419.136 397.324 422.624 385.137L431.922 352.579C432.511 350.519 433.614 348.644 435.129 347.129C436.644 345.614 438.519 344.511 440.579 343.922L473.137 334.624C485.324 331.136 485.324 313.864 473.137 310.376L440.579 301.078C438.519 300.489 436.644 299.386 435.129 297.871C433.614 296.356 432.511 294.481 431.922 292.421L422.624 259.863C419.136 247.676 401.864 247.676 398.376 259.863L389.078 292.421C388.489 294.481 387.386 296.356 385.871 297.871C384.356 299.386 382.481 300.489 380.421 301.078L347.863 310.376C335.676 313.864 335.676 331.136 347.863 334.624L380.421 343.922C382.481 344.511 384.356 345.614 385.871 347.129C387.386 348.644 388.489 350.519 389.078 352.579M330.969 403.565L334.919 419.408C335.444 421.531 338.47 421.531 338.995 419.408L342.956 403.565C343.049 403.197 343.24 402.862 343.508 402.593C343.776 402.325 344.112 402.134 344.48 402.042L360.323 398.081C362.445 397.556 362.445 394.54 360.323 394.005L344.48 390.044C344.112 389.951 343.776 389.76 343.508 389.492C343.24 389.224 343.049 388.888 342.956 388.52L338.995 372.677C338.47 370.555 335.444 370.555 334.919 372.677L330.958 388.52C330.865 388.888 330.675 389.224 330.407 389.492C330.138 389.76 329.803 389.951 329.435 390.044L313.592 394.005C311.469 394.53 311.469 397.545 313.592 398.081L329.435 402.042C329.803 402.134 330.138 402.325 330.407 402.593C330.675 402.862 330.876 403.197 330.969 403.565ZM478.054 256.48L482.005 272.323C482.53 274.445 485.545 274.445 486.081 272.323L490.042 256.48C490.134 256.112 490.325 255.776 490.593 255.508C490.862 255.24 491.197 255.049 491.565 254.956L507.408 250.995C509.531 250.47 509.531 247.444 507.408 246.919L491.565 242.958C491.197 242.865 490.862 242.675 490.593 242.407C490.325 242.138 490.134 241.803 490.042 241.435L486.081 225.592C485.556 223.469 482.54 223.469 482.005 225.592L478.044 241.435C477.951 241.803 477.76 242.138 477.492 242.407C477.224 242.675 476.888 242.865 476.52 242.958L460.677 246.919C458.555 247.444 458.555 250.47 460.677 250.995L476.52 254.956C476.888 255.049 477.224 255.24 477.492 255.508C477.76 255.776 477.961 256.112 478.054 256.48Z" stroke="black" stroke-opacity="0.1" stroke-width="2" stroke-miterlimit="10" stroke-linecap="round" stroke-linejoin="round"/>
<path d="M1152.07 107.579L1161.38 140.137C1164.86 152.324 1182.14 152.324 1185.62 140.137L1194.92 107.579C1195.51 105.519 1196.61 103.644 1198.13 102.129C1199.64 100.614 1201.52 99.5106 1203.58 98.9219L1236.14 89.624C1248.32 86.136 1248.32 68.864 1236.14 65.3759L1203.58 56.078C1201.52 55.4893 1199.64 54.3856 1198.13 52.8709C1196.61 51.3562 1195.51 49.4806 1194.92 47.421L1185.62 14.8626C1182.14 2.67551 1164.86 2.67551 1161.38 14.8626L1152.08 47.421C1151.49 49.4806 1150.39 51.3562 1148.87 52.8709C1147.36 54.3856 1145.48 55.4893 1143.42 56.078L1110.86 65.3759C1098.68 68.864 1098.68 86.136 1110.86 89.624L1143.42 98.9219C1145.48 99.5106 1147.36 100.614 1148.87 102.129C1150.39 103.644 1151.49 105.519 1152.08 107.579M1093.97 158.565L1097.92 174.408C1098.44 176.531 1101.47 176.531 1102 174.408L1105.96 158.565C1106.05 158.197 1106.24 157.862 1106.51 157.593C1106.78 157.325 1107.11 157.134 1107.48 157.042L1123.32 153.081C1125.45 152.556 1125.45 149.54 1123.32 149.005L1107.48 145.044C1107.11 144.951 1106.78 144.76 1106.51 144.492C1106.24 144.224 1106.05 143.888 1105.96 143.52L1102 127.677C1101.47 125.555 1098.44 125.555 1097.92 127.677L1093.96 143.52C1093.87 143.888 1093.67 144.224 1093.41 144.492C1093.14 144.76 1092.8 144.951 1092.43 145.044L1076.59 149.005C1074.47 149.53 1074.47 152.545 1076.59 153.081L1092.43 157.042C1092.8 157.134 1093.14 157.325 1093.41 157.593C1093.67 157.862 1093.88 158.197 1093.97 158.565ZM1241.05 11.4796L1245 27.3228C1245.53 29.4451 1248.55 29.4451 1249.08 27.3228L1253.04 11.4796C1253.13 11.1118 1253.33 10.776 1253.59 10.5078C1253.86 10.2396 1254.2 10.049 1254.57 9.95624L1270.41 5.99544C1272.53 5.47013 1272.53 2.44438 1270.41 1.91907L1254.57 -2.04173C1254.2 -2.13452 1253.86 -2.32512 1253.59 -2.59333C1253.33 -2.86153 1253.13 -3.19734 1253.04 -3.56512L1249.08 -19.4083C1248.56 -21.5306 1245.54 -21.5306 1245 -19.4083L1241.04 -3.56512C1240.95 -3.19734 1240.76 -2.86153 1240.49 -2.59333C1240.22 -2.32512 1239.89 -2.13452 1239.52 -2.04173L1223.68 1.91907C1221.55 2.44438 1221.55 5.47013 1223.68 5.99544L1239.52 9.95624C1239.89 10.049 1240.22 10.2396 1240.49 10.5078C1240.76 10.776 1240.96 11.1118 1241.05 11.4796Z" stroke="black" stroke-opacity="0.1" stroke-width="2" stroke-miterlimit="10" stroke-linecap="round" stroke-linejoin="round"/>
</g>
<defs>
<clipPath id="clip0_871_28652">
<rect width="1247" height="352" rx="24" fill="white"/>
</clipPath>
</defs>
</svg>
